# xmcd
#
# Track frame offsets: 
#        150
#        10345
#        22967
#        34432
#        50430
#        63242
#        76800
#        88220
#        101582
#        111572
#        124045
#        134732
#        149632
#        163970
#        173225
#        188062
#        198250
#        213867
#        224110
#        241202
#        257300
#        267677
#        281872
#        295102
#        304525
#        315920
#        328840
#
# Disc length: 4559 seconds
#
# Revision: 3
# Processed by: cddbd v1.5.2PL0 Copyright (c) Steve Scherf et al.
# Submitted via: ExactAudioCopy v0.99pb4
#
DISCID=a011cd1b
DTITLE=Jehovah's Witnesses - Sing Praises To Jehovah - Disc 2
DYEAR=1994
DGENRE=Classical
TTITLE0=Song 31 - Zeal for Jehovahs House (Jo 2:17)
TTITLE1=Song 32 - From House to House (Ac 20:20)
TTITLE2=Song 33 - Jehovah Himself Has Become King (Ps 97:1)
TTITLE3=Song 34 - Living Up to Our Name (Isa 42:10-12)
TTITLE4=Song 35 - Love Excelling Way (1Co 13)
TTITLE5=Song 36 - Happy are the Mild-Tempered (Mt 5:5)
TTITLE6=Song 37 - Making a Good Name with God (Ec 7:1)
TTITLE7=Song 38 - Displaying Loyalty (Ps 18:25)
TTITLE8=Song 39 - Gods Warriors are Advancing (1Tim 6:12)
TTITLE9=Song 40 - Making our Way Successful (Jos 1:8)
TTITLE10=Song 41 - Praise Jehovah, the Rock (De 32:4)
TTITLE11=Song 42 - This is the Way (Isa 30:20, 21)
TTITLE12=Song 43 - Forward, You Ministers of the Kingdom! (2Ti 4:5)
TTITLE13=Song 44 - Jehovah Really Cares (1Pe 5:7)
TTITLE14=Song 45 - A Prayer of Thanksgiving (Ps 65:2)
TTITLE15=Song 46 - The Scriptures - Inspired and Beneficial (2Ti 3:16,
TTITLE15=17)
TTITLE16=Song 47 - Jehovah Our Strength and Our Might (Isa 12:2)
TTITLE17=Song 48 - Give Jehovah the Praise (1Co 3:7)
TTITLE18=Song 49 - Great God, Jehovah! (Ps 95:3)
TTITLE19=Song 50 - Respond to God's Love (1Jo 4:11)
TTITLE20=Song 51 - Making Jehovah's Heart Glad (Pr 27:11)
TTITLE21=Song 52 - Our Father's Name (Mt 6:9)
TTITLE22=Song 53 - Theocracy's Increase (Isa 9:6, 7)
TTITLE23=Song 54 - We Must Be Holy (1Pe 1;15, 16)
TTITLE24=Song 55 - Daily Walking with Jehovah (Mic 6:8)
TTITLE25=Song 56 - Bravely Press On (1Ti 1:12)
TTITLE26=Song 57 - Jehovah's Happy People (Ps 89:15)
EXTD=Sing Praises To Jehovah - On Compact Disc\nSongs 31-57 YEAR: 1994
EXTT0=
EXTT1=
EXTT2=
EXTT3=
EXTT4=
EXTT5=
EXTT6=
EXTT7=
EXTT8=
EXTT9=
EXTT10=
EXTT11=
EXTT12=
EXTT13=
EXTT14=
EXTT15=
EXTT16=
EXTT17=
EXTT18=
EXTT19=
EXTT20=
EXTT21=
EXTT22=
EXTT23=
EXTT24=
EXTT25=
EXTT26=
PLAYORDER=
